# xmcd CD database file
#
# Track frame offsets:
#        150
#        16703
#        31247
#        52307
#        75201
#        94264
#        118959
#        137950
#        170713
#        191967
#        211530
#        255647
#
# Disc length: 4057 seconds
#
# Revision: 0
# Processed by: cddbd v1.5.2PL0 Copyright (c) Steve Scherf et al.
# Submitted via: CUERipper 2.1.6
#
DISCID=a40fd70c
DTITLE=David Gogo - Halfway to Mephis
DYEAR=2000
DGENRE=Blues
TTITLE0=Louisiana Blues
TTITLE1=Click Clack
TTITLE2=Nightlife
TTITLE3=Bad faces
TTITLE4=Soul fever
TTITLE5=Halfway to Memphis
TTITLE6=Rollin' and tumblin'
TTITLE7=This is a man's world
TTITLE8=(I Gotta) Testify
TTITLE9=I should have lied
TTITLE10=Blues medley: Commit a crime - Smokestack lightnin' - It serves me right to suffer - Boom boom - Wang Dang Doodle
TTITLE11=Hoochie Coochie Man
EXTD=
EXTT0=
EXTT1=
EXTT2=
EXTT3=
EXTT4=
EXTT5=
EXTT6=
EXTT7=
EXTT8=
EXTT9=
EXTT10=
EXTT11=
PLAYORDER=
